<svg width="16" height="16" viewBox="0 0 16 16" fill="none" xmlns="http://www.w3.org/2000/svg">
<path d="M13.3333 4.6665H2.66666C1.93028 4.6665 1.33333 5.26346 1.33333 5.99984V12.6665C1.33333 13.4029 1.93028 13.9998 2.66666 13.9998H13.3333C14.0697 13.9998 14.6667 13.4029 14.6667 12.6665V5.99984C14.6667 5.26346 14.0697 4.6665 13.3333 4.6665Z" stroke="#8075F7" stroke-linecap="round" stroke-linejoin="round"/>
<path d="M10.6667 14V3.33333C10.6667 2.97971 10.5262 2.64057 10.2761 2.39052C10.0261 2.14048 9.68695 2 9.33333 2H6.66666C6.31304 2 5.9739 2.14048 5.72385 2.39052C5.4738 2.64057 5.33333 2.97971 5.33333 3.33333V14" stroke="#8075F7" stroke-linecap="round" stroke-linejoin="round"/>
</svg>
