<svg width="48" height="48" viewBox="0 0 48 48" fill="none" xmlns="http://www.w3.org/2000/svg">
<path d="M24 0C10.8 0 0 10.7341 0 23.9545C0 35.9078 8.78399 45.829 20.256 47.622V30.8874H14.16V23.9545H20.256V18.6711C20.256 12.6705 23.832 9.3714 29.328 9.3714C31.944 9.3714 34.68 9.82562 34.68 9.82562V15.7306H31.656C28.68 15.7306 27.744 17.5714 27.744 19.46V23.9545H34.416L33.336 30.8874H27.744V47.622C33.3993 46.7322 38.5492 43.8579 42.2637 39.5177C45.9782 35.1777 48.0129 29.6577 47.9999 23.9545C47.9999 10.7341 37.2 0 24 0Z" fill="#8075F7"/>
</svg>
