<svg width="48" height="48" viewBox="0 0 48 48" fill="none" xmlns="http://www.w3.org/2000/svg">
<path fill-rule="evenodd" clip-rule="evenodd" d="M24 0C37.2552 0 48 11.0158 48 24.607C48 35.4766 41.1312 44.6975 31.6008 47.9543C30.384 48.1967 29.952 47.4282 29.952 46.773C29.952 45.9618 29.9808 43.3123 29.9808 40.0195C29.9808 37.7251 29.2128 36.2276 28.3512 35.4645C33.696 34.8549 39.312 32.7739 39.312 23.3227C39.312 20.6347 38.3808 18.4412 36.84 16.718C37.0896 16.0964 37.9128 13.5935 36.6048 10.2047C36.6048 10.2047 34.5936 9.54533 30.012 12.7277C28.0944 12.1829 26.04 11.9088 24 11.8992C21.96 11.9088 19.908 12.1829 17.9928 12.7277C13.4064 9.54533 11.3904 10.2047 11.3904 10.2047C10.0872 13.5935 10.9104 16.0964 11.1576 16.718C9.62401 18.4412 8.68561 20.6347 8.68561 23.3227C8.68561 32.7499 14.2896 34.8628 19.62 35.4844C18.9336 36.0988 18.312 37.1826 18.096 38.7738C16.728 39.4026 13.2528 40.4909 11.112 36.7301C11.112 36.7301 9.8424 34.3658 7.4328 34.193C7.4328 34.193 5.0928 34.1619 7.2696 35.6883C7.2696 35.6883 8.8416 36.4443 9.9336 39.2883C9.9336 39.2883 11.3424 43.6802 18.0192 42.1922C18.0312 44.249 18.0528 46.1874 18.0528 46.773C18.0528 47.4234 17.6112 48.1846 16.4136 47.9566C6.87599 44.7046 0 35.479 0 24.607C0 11.0158 10.7472 0 24 0Z" fill="#8075F7"/>


</svg>
