<svg width="48" height="48" viewBox="0 0 48 48" fill="none" xmlns="http://www.w3.org/2000/svg">
<path fill-rule="evenodd" clip-rule="evenodd" d="M14.0872 0.29455C10.1803 0.47083 6.79395 1.42602 4.05959 4.14885C1.31567 6.88598 0.372339 10.2857 0.19562 14.152C0.0857674 16.5651 -0.556594 34.7959 1.30612 39.577C2.56225 42.8024 5.03626 45.2824 8.29123 46.5426C9.81005 47.1334 11.5439 47.5333 14.0872 47.65C35.3531 48.6124 43.2362 48.0885 46.5604 39.577C47.1503 38.0619 47.5563 36.3296 47.6685 33.7926C48.6405 12.4721 47.5109 7.85075 43.8046 4.14885C40.8649 1.21638 37.4069 -0.77981 14.0872 0.29455ZM14.283 43.3621C11.9546 43.2573 10.6913 42.8693 9.84828 42.543C7.72766 41.7188 6.13481 40.1325 5.31569 38.0242C3.89716 34.3914 4.36764 17.1373 4.4942 14.3453C4.61839 11.6106 5.17241 9.11121 7.10199 7.18166C9.49009 4.79947 12.5755 3.63198 33.5835 4.5801C36.3251 4.70396 38.8302 5.25686 40.7646 7.18166C43.1526 9.56383 44.3371 12.673 43.3723 33.6004C43.2673 35.923 42.878 37.1833 42.5509 38.0242C40.3896 43.5628 35.4176 44.3317 14.283 43.3621ZM33.8152 11.2551C33.8152 12.8321 35.0976 14.1145 36.6809 14.1145C38.2642 14.1145 39.549 12.8321 39.549 11.2551C39.549 9.67811 38.2642 8.39689 36.6809 8.39689C35.0976 8.39689 33.8152 9.67811 33.8152 11.2551ZM11.6704 23.9711C11.6704 30.727 17.1606 36.2043 23.9333 36.2043C30.7059 36.2043 36.1961 30.727 36.1961 23.9711C36.1961 17.2153 30.7059 11.7414 23.9333 11.7414C17.1606 11.7414 11.6704 17.2153 11.6704 23.9711ZM15.9737 23.9711C15.9737 19.5879 19.5368 16.0317 23.9333 16.0317C28.3298 16.0317 31.8928 19.5879 31.8928 23.9711C31.8928 28.3567 28.3298 31.9141 23.9333 31.9141C19.5368 31.9141 15.9737 28.3567 15.9737 23.9711Z" fill="#8075F7"/>
</svg>
