<svg width="48" height="48" viewBox="0 0 48 48" fill="none" xmlns="http://www.w3.org/2000/svg">
<path d="M27.3713 17.8065C27.3713 15.3032 29.4045 13.2737 31.9107 13.2737C34.417 13.2737 36.4502 15.3032 36.4502 17.8049C36.4502 20.3082 34.4186 22.3362 31.9107 22.3362C31.9107 22.3362 31.9107 22.3362 31.9091 22.3362C29.4029 22.3362 27.3713 20.3082 27.3713 17.8065C27.3713 17.8065 27.3697 17.8065 27.3697 17.8049L27.3713 17.8065ZM37.9366 17.8161C37.9366 14.4853 35.2315 11.7851 31.8947 11.7851C28.5579 11.7851 25.8528 14.4853 25.8528 17.8161C25.8528 21.147 28.5579 23.8471 31.8947 23.8471C35.2299 23.8423 37.9318 21.1438 37.9366 17.8161ZM15.0646 36.423L12.1126 35.2033C12.9529 36.9287 14.6958 38.0972 16.7114 38.0972C18.8232 38.0972 20.6367 36.8151 21.4096 34.9872L21.4224 34.9536C21.671 34.3742 21.8169 33.6988 21.8169 32.9913C21.8169 30.1791 19.5335 27.8998 16.7162 27.8998C16.0668 27.8998 15.4463 28.0215 14.8754 28.2408L14.9107 28.2296L17.9621 29.4892C19.3283 30.0718 20.2695 31.4035 20.2695 32.9529C20.2695 35.0272 18.5843 36.7095 16.5062 36.7095C15.9866 36.7095 15.4928 36.6038 15.0422 36.415L15.0662 36.4246L15.0646 36.423ZM23.9591 0C11.3606 0.00160059 1.02783 9.67715 0.00641401 21.9889L0 22.0753L12.8887 27.3924C13.9598 26.653 15.2859 26.2128 16.7162 26.2128C16.7178 26.2128 16.7194 26.2128 16.7194 26.2128C16.8461 26.2128 16.9696 26.2208 17.0962 26.2256L22.8287 17.941V17.8225C22.8335 12.8287 26.8903 8.78242 31.8931 8.78242C36.8992 8.78242 40.9575 12.8335 40.9575 17.8305C40.9575 22.8276 36.8992 26.8787 31.8931 26.8787H31.683L23.5149 32.7016C23.5149 32.8056 23.523 32.9113 23.523 33.0201C23.523 33.0217 23.523 33.0233 23.523 33.0249C23.523 36.7735 20.478 39.813 16.7226 39.813C13.4403 39.813 10.7 37.4905 10.0634 34.403L10.0554 34.3598L0.827393 30.5456C3.77939 40.7013 13.0154 48 23.9575 48C37.2359 48 48 37.2553 48 24.0008C48 10.7463 37.2359 0.00160066 23.9575 0.00160066L23.9591 0Z" fill="#8075F7"/>
</svg>
